<?xml version="1.0" encoding="utf-8"?><svg id="Designer_64" data-name="Designer 64" xmlns="http://www.w3.org/2000/svg" width="63.999" height="62" viewBox="0 0 63.999 62">
  <g id="ds_appicon_64" transform="translate(0 0)">
    <g id="Surfaces">
      <g id="_3D_Substance_Surface">
        <g id="Outline_no_shadow">
          <path id="Path_185380" data-name="Path 185380" d="M11.33,0H52.669A11.357,11.357,0,0,1,64,11.383V50.617A11.357,11.357,0,0,1,52.669,62H11.33A11.357,11.357,0,0,1,0,50.617V11.383A11.357,11.357,0,0,1,11.33,0Z" fill="#1e3101"/>
        </g>
      </g>
    </g>
    <g id="Live_Text" transform="translate(12.06 15.71)">
      <g id="Ds_copy">
        <g id="Group_180803" data-name="Group 180803">
          <path id="Path_185381" data-name="Path 185381" d="M10.554,41.18V14.162a.311.311,0,0,1,.277-.339h.019q.634-.041,1.861-.063t2.875-.042q1.649-.021,3.51-.022a18.1,18.1,0,0,1,8.415,1.742,11.728,11.728,0,0,1,5.01,4.78A14.264,14.264,0,0,1,34.192,27.2a15.654,15.654,0,0,1-.867,5.417,12.622,12.622,0,0,1-2.368,4.056,14.071,14.071,0,0,1-3.4,2.824,14.918,14.918,0,0,1-4.059,1.657,17.79,17.79,0,0,1-4.271.53h-3.15q-1.671,0-3.109-.022T10.807,41.6C10.639,41.6,10.554,41.464,10.554,41.18ZM16.39,18.92V36.507q.465,0,.846.022c.254.015.513.029.783.042s.57.022.909.022A11.276,11.276,0,0,0,22.69,36a7.706,7.706,0,0,0,2.9-1.784,8.015,8.015,0,0,0,1.861-2.931,11.156,11.156,0,0,0,.655-3.951,10.016,10.016,0,0,0-.634-3.718,7.043,7.043,0,0,0-1.84-2.676,7.5,7.5,0,0,0-2.875-1.592,12.477,12.477,0,0,0-3.657-.51q-.847,0-1.417.022c-.379.013-.809.034-1.289.062Z" transform="translate(-10.553 -13.683)" fill="#99e83f"/>
          <path id="Path_185382" data-name="Path 185382" d="M47.482,25.191a9.9,9.9,0,0,0-2.515-.892,13.264,13.264,0,0,0-2.939-.34,5.4,5.4,0,0,0-1.585.192,1.425,1.425,0,0,0-.825.532,1.338,1.338,0,0,0-.211.722,1.134,1.134,0,0,0,.254.68,6.506,6.506,0,0,0,3.079,1.7,18.189,18.189,0,0,1,3.709,1.808,6.137,6.137,0,0,1,2.071,2.188,5.852,5.852,0,0,1,.614,2.719A6.122,6.122,0,0,1,48.115,38a6.667,6.667,0,0,1-2.938,2.357,11.8,11.8,0,0,1-4.757.85,17.13,17.13,0,0,1-3.574-.34,10.214,10.214,0,0,1-2.558-.85.55.55,0,0,1-.3-.51V34.92a.251.251,0,0,1,.105-.234.205.205,0,0,1,.233.022A10.506,10.506,0,0,0,37.461,36a12.16,12.16,0,0,0,3.509.419c.92-.057,2.466-.282,2.454-1.5a1.556,1.556,0,0,0-.909-1.225,21.36,21.36,0,0,0-2.9-1.289,15.465,15.465,0,0,1-3.151-1.691,6.475,6.475,0,0,1-1.987-2.23,6.087,6.087,0,0,1,.274-5.884A6.457,6.457,0,0,1,37.5,20.179a10.327,10.327,0,0,1,4.651-.935,20.333,20.333,0,0,1,3.256.234,7.921,7.921,0,0,1,2.2.615.386.386,0,0,1,.254.234,1.153,1.153,0,0,1,.042.318v4.291a.286.286,0,0,1-.127.255A.276.276,0,0,1,47.482,25.191Z" transform="translate(-7.225 -12.86)" fill="#99e83f"/>
        </g>
      </g>
    </g>
  </g>
</svg>
