<?xml version="1.0" encoding="utf-8"?><svg id="Painter_64" data-name="Painter 64" xmlns="http://www.w3.org/2000/svg" width="63.999" height="62" viewBox="0 0 63.999 62">
  <g id="pt_appicon_64" transform="translate(0 0)">
    <g id="Surfaces">
      <g id="_3D_Substance_Surface">
        <g id="Outline_no_shadow">
          <path id="Path_185383" data-name="Path 185383" d="M11.33,0H52.669A11.357,11.357,0,0,1,64,11.383V50.617A11.357,11.357,0,0,1,52.669,62H11.33A11.357,11.357,0,0,1,0,50.617V11.383A11.357,11.357,0,0,1,11.33,0Z" fill="#1e3101"/>
        </g>
      </g>
    </g>
    <g id="Live_Text" transform="translate(15.233 15.715)">
      <g id="Pt_copy">
        <g id="Group_180804" data-name="Group 180804">
          <path id="Path_185384" data-name="Path 185384" d="M13.329,41.264V14.119c0-.2.085-.3.254-.3q.677,0,1.607-.022l2.009-.042q1.078-.021,2.283-.042t2.389-.022a15.839,15.839,0,0,1,5.413.807,9.368,9.368,0,0,1,3.53,2.167,8.324,8.324,0,0,1,1.925,2.994,9.967,9.967,0,0,1,.592,3.42,9.475,9.475,0,0,1-1.565,5.608A8.834,8.834,0,0,1,27.537,31.9a16.753,16.753,0,0,1-5.92,1q-.931,0-1.311-.022t-1.142-.022V41.22a.338.338,0,0,1-.286.382.328.328,0,0,1-.095,0H13.625C13.427,41.6,13.329,41.492,13.329,41.264Zm5.835-22.345v8.794q.549.043,1.015.042h1.4A9.953,9.953,0,0,0,24.6,27.33a4.563,4.563,0,0,0,2.157-1.4,4.084,4.084,0,0,0,.824-2.719,4.3,4.3,0,0,0-.613-2.336,3.947,3.947,0,0,0-1.839-1.508,7.815,7.815,0,0,0-3.087-.532q-1.015,0-1.8.022c-.522.014-.881.036-1.079.063Z" transform="translate(-13.329 -13.687)" fill="#99e83f"/>
          <path id="Path_185385" data-name="Path 185385" d="M46.153,37.318V40.8q0,.468-.338.552a14.814,14.814,0,0,1-1.691.425,10.937,10.937,0,0,1-2.03.17,7.019,7.019,0,0,1-2.614-.423A4.755,4.755,0,0,1,37.4,40.048,5.962,5.962,0,0,1,36.336,37.6a13.9,13.9,0,0,1-.121-2.722V25.339H33.72c-.226,0-.338-.127-.338-.382V20.751q0-.339.381-.34h2.495q.041-.722.106-1.679t.169-1.912q.1-.956.191-1.551a.763.763,0,0,1,.127-.234.451.451,0,0,1,.211-.148l5.032-.637a.27.27,0,0,1,.211,0c.056.029.085.114.085.255q-.086.978-.127,2.656t-.085,3.25h3.933c.169,0,.254.114.254.34v4.291a.261.261,0,0,1-.211.3H42.136V33.43a5.449,5.449,0,0,0,.465,3.012,1.8,1.8,0,0,0,1.437.675,8.426,8.426,0,0,0,1.558-.072c.139-.018.32-.082.45,0A.3.3,0,0,1,46.153,37.318Z" transform="translate(-10.465 -13.607)" fill="#99e83f"/>
        </g>
      </g>
    </g>
  </g>
</svg>
